<svg xmlns="http://www.w3.org/2000/svg" xmlns:xlink="http://www.w3.org/1999/xlink" fill="none" version="1.1" width="139" height="44" viewBox="0 0 139 44"><defs><clipPath id="master_svg0_124_07450"><rect x="0" y="0" width="139" height="44" rx="0"/></clipPath></defs><g clip-path="url(#master_svg0_124_07450)"><g></g><g><path d="M66.68800565625,24.301946515624998C66.42189265625001,22.298751515625,65.16228665625,21.086291515625,63.33497665625,20.400988515625002C62.46566665625,20.082047415625,61.57684565625,19.817940715625,60.673839656249996,19.610253315625002C59.04167365625,19.206099515625,57.39177175625,18.872235315624998,55.77734855625,18.397793815625C54.67740965625,18.063926715625,53.95003655625,17.273191915625,53.95003655625,16.060731415625C53.95003655625,14.848271415625,54.58871035625,14.004821315625,55.67090705625,13.495236615625C58.314300556250004,12.247633015625,61.09962465625,12.897792115625,62.69630765625,15.006418215625C62.94525365625,15.360402115625,63.09799465625,15.771904015625001,63.13982965625,16.201307315625L66.36867665625,16.201307315625C66.36035565625,15.337636915625,66.12822165624999,14.490556715625,65.69452465625,13.741243315624999L65.64130365625,13.670955615625001C65.08941865625,12.816796815625,64.35702565625,12.091383915625,63.49465365625,11.544757415625C61.11736165625,9.998430755625,57.12565755625,9.734852465625,54.287112756249996,11.070315535625C52.05175785625,12.124628815625,50.84537815625,14.039964715625,50.96956135625,16.517600015625C51.09374455625,18.995236415625,52.548501056250004,20.418559515625,54.78385635625,21.209293515625C55.54671335625,21.490443515625,56.38053755625,21.631019515625,57.17887875625,21.841881515624998C58.81104375625,22.246035515625,60.49643065625,22.527185515625,62.05762765625,23.124628515624998C63.95590665625,23.845076515625,64.32846165625,26.006416515625,62.99789365625,27.482456515625C60.99317365625,29.696516515625,55.635417456249996,29.257219515625,53.68391795625,26.920156515625C53.21614555625,26.385862515625,52.88726635625,25.746444515625,52.72590975625,25.057535515625L49.44384765625,25.057535515625C49.47933163525,25.215682515624998,50.24218839625,27.078302515625,50.66796915625,27.746034515625C51.05832005625,28.412761515625,51.56254555625,29.007316515625,52.15820405625,29.503223515625C55.29834695625,32.086290515624995,61.20606665625,32.332298515625,64.47039265625,29.907377515625C66.35092965625,28.519199515625,66.97186065625,26.568719515625,66.68800565625,24.301946515624998Z" fill="#000000" fill-opacity="1" style="mix-blend-mode:passthrough"/></g><g><path d="M116.5932366015625,16.043212890625C116.5932366015625,16.043212890625,114.1272469015625,22.193373190625,112.9031305015625,25.391455690625C112.7259712015625,25.857635490625,112.6358051015625,26.351814890625,112.6370172015625,26.849922890625002L112.6370172015625,27.605514890625003L112.1225266015625,27.605514890625003L107.7050369015625,16.043212890625L104.5826416015625,16.043212890625C104.7423141015625,16.517653290625,108.3259685015625,25.742894190625,110.0468388015625,29.995292890625002C110.3579326015625,30.674872890625,110.3383226015625,31.458017890625,109.9936185015625,32.121491890624995C109.3194656015625,33.544816890625,108.7340178015625,35.003280890625,108.0598552015625,36.567178890625L111.2709546015625,36.567178890625C113.7901649015625,30.364303890625,119.4849916015625,16.429797890625,119.6269166015625,16.0432155718822L116.5932366015625,16.043212890625Z" fill="#000000" fill-opacity="1" style="mix-blend-mode:passthrough"/></g><g><path d="M72.1167389151875,31.1549750703125L75.0972091671875,31.1549750703125L75.0262467671875,17.2731852703125C75.0262520671875,16.6909060203125,74.5496764671875,16.218873410941,73.9617920671875,16.2188720703125L72.0457763671875,16.2188720703125L72.1167389151875,31.1549750703125Z" fill="#000000" fill-opacity="1" style="mix-blend-mode:passthrough"/></g><g><path d="M125.7475182703125,12.14208984375L125.0733660703125,12.14208984375L123.4766845703125,15.972760243749999L124.0621323003125,15.972760243749999L124.4524344203125,14.95359014375L126.3329660703125,14.95359014375L126.7410046703125,15.972760243749999L127.3264524703125,15.972760243749999L125.7475182703125,12.14208984375ZM124.6298434703125,14.496722943750001L125.3394796703125,12.70439100375L125.4459209703125,12.70439100375L126.1555571703125,14.496722943750001L124.6298434703125,14.496722943750001Z" fill="#000000" fill-opacity="1" style="mix-blend-mode:passthrough"/></g><g><rect x="128.142578125" y="12.14208984375" width="0.5677090287208557" height="3.821885347366333" rx="0" fill="#000000" fill-opacity="1" style="mix-blend-mode:passthrough"/></g><g><path d="M81.94514838125,19.5399586703125L81.55484628125,19.5399586703125L81.55484628125,19.2060925703125L81.55484628125,18.7492239703125L87.83512588125,18.7492239703125L87.83512588125,17.2380419703125C87.84503888125,16.6780239003125,87.38937858125,16.2187862700885,86.82389258124999,16.2188720703125L80.31298828125,16.2188720703125L80.31298828125,31.154974070312498L83.09831288125,31.154974070312498C83.09831288125,27.6230230703125,83.11605478125,24.3722247703125,83.08057068125,20.9105634703125C83.08056518125,20.2076909703125,82.72574708125,19.6981057703125,81.94514838125,19.5399586703125Z" fill="#000000" fill-opacity="1" style="mix-blend-mode:passthrough"/></g><g><path d="M75.9311175703125,8.7508901525L75.8778972703125,8.8036056725C74.5295872703125,9.6294844125,73.5715796703125,9.9457782125,71.7797467703125,9.1726149925L71.6378216703125,9.1023272325C71.0532022703125,8.8517369025,70.4477386503125,8.6518398225,69.8282470703125,8.5048828125C70.2362857503125,8.6630300625,70.9814059703125,9.2956177025,71.4426706703125,9.8579181125C72.1523070703125,10.7892279125,72.1877908703125,11.9841165125,71.3007454703125,13.4074392125L71.2297829703125,13.4777269125C71.2475249703125,13.4777269125,71.2475249703125,13.4601555125,71.2652669703125,13.4425835125C72.6490554703125,12.6342773125,74.3344416703125,12.4937017125,75.7714562703125,13.372295812499999C74.9021472703125,12.2652681125,74.9553680703125,10.1214971125,75.9311175703125,8.7508901525Z" fill="#000000" fill-opacity="1" style="mix-blend-mode:passthrough"/></g><g><path d="M99.65064253125,31.190138359375L102.36499853125,31.190138359375C102.36499853125,27.447327359375002,102.47144053125,23.897807159375,102.32951553125,20.260427459375002C102.24081153125,18.380236159375,101.19409253124999,16.658190859375,99.29582453125,16.043174859375C96.68790863125,15.199723779375,93.95581583124999,15.445730449375,91.82690713125,16.798766459375C90.35441413125,17.730076759375,89.50284728125,19.241258859375,89.48510529125,21.086306559375C90.10603702125,21.086306559375,90.69148483125,21.121449959375,91.25919583125,21.103878459375L92.37687083125,21.103878459375C92.37687083125,21.103878459375,92.34138683125,20.541578759375,92.76717303125,19.750843559375C94.00903653125,17.747648459375,97.89429953125,17.765220159375,98.99422743125,19.188543759375C99.41729553125,19.779885759375,99.59510453125,20.509496259375,99.49096953125,21.226882459375C99.29582453125,22.246051759375,97.57495403125,22.316338559374998,96.61694093125,22.474485859375C94.96703863125,22.773207659375,93.26390533125,22.984069359375,91.70270773125,23.528799059375C90.14151019125,24.073528259375,89.21898085625,25.637425359375,89.27220141145,27.412186359375C89.32542196625,29.186948359375002,90.21246731125,30.575126359375,92.00430533125,31.242858359375C94.62995723125,32.226886359375,97.22013613125,31.348291359375,98.72811313125,29.011229359375C98.83264923125,28.868538359375002,98.92182923125,28.715417359375,98.99422743125,28.554360359375L99.66837853125,28.554360359375C99.66837853125,28.888222359375,99.65064253125,30.926561359375,99.65064253125,31.190138359375ZM99.65064253125,24.337104759375002C99.56193753125,26.990460359375,97.85881523125,29.397808359375,94.77189353125,29.257231359374998C94.36420103125,29.219893359375,93.96396973125,29.125226359375,93.58325053125,28.976081359375C92.76717303125,28.642215359375,92.39460733125,27.974484359374998,92.37687083125,27.113460359375C92.35913443125,26.252435359375,92.66072103125,25.584706359374998,93.44132523125,25.303555459374998C94.34950733125,24.987895959375003,95.28064493125,24.741177559375,96.22664933125,24.565536459375C97.22013613125,24.337101959374998,98.56845193125,24.196526559375002,98.95875363125,23.353077859375L99.65065353125,23.353077859375L99.65064253125,24.337104759375002Z" fill="#000000" fill-opacity="1" style="mix-blend-mode:passthrough"/></g><g><path d="M39.4734730234375,12.194906176875C39.455730023437496,12.194906176875,38.1783870234375,13.688516346875,37.4687500234375,16.078292846875C37.3374940234375,16.497105146875,37.2425320234375,16.926242846875,37.1848950234375,17.361040546875C36.8123350234375,20.330690346875002,37.0784480234375,23.036760046875,39.6331410234375,26.621424046875L39.7041030234375,26.726857046875C40.2038230234375,27.490082046875,40.0926110234375,28.496162046875,39.4379880234375,29.134205046875C38.767448023437495,29.765379046875,37.7373690234375,29.831915046875,36.9897440234375,29.292351046875L36.9365210234375,29.257208046875C36.9010400234375,29.222065046875,33.1222260234375,26.586281046875,29.3079309234375,26.849859046875C28.477275823437502,26.896685046875,27.6522355234375,27.014266046875,26.841946123437502,27.201297046875C24.7130372234375,27.816313046875,23.7372873234375,28.484045046875,23.4711737234375,28.659765046875L22.5486471634375,29.380213046875L22.3357568134375,29.555931046875C21.9884724094375,29.840094046875,21.8552220534375,30.307613046875,22.0012171904375,30.729702046875C22.1472109534375,31.151789046875,22.5419147034375,31.440159046875,22.9921698234375,31.453695046875L38.5509450234375,31.453695046875C40.199907023437504,31.453726046875,41.5394000234375,30.134844046875,41.549156023437504,28.501619046875L41.549156023437504,12.669346546875C41.5604740234375,12.221138236875,41.2843610234375,11.814864816875,40.860851023437505,11.656572796875C40.4373400234375,11.498280770875,39.9590800234375,11.622595913875,39.6686190234375,11.966471136875L39.4734730234375,12.194906176875Z" fill="#000000" fill-opacity="1" style="mix-blend-mode:passthrough"/></g><g><path d="M38.213920828125,27.6932318671875L38.178439828125,27.6405158671875C35.339894828125,23.6516978671875,35.002818828125,20.4711858671875,35.428599828125,17.1501011671875C35.484258828125,16.6183771671875,35.597261828125,16.0940866671875,35.765674828125,15.586203067187501C36.249845828125004,13.929718467187499,37.057536828124995,12.3834562671875,38.142957828125,11.0350837671875C37.894586828125,11.1580871671875,36.972057828125,11.8258192671875,36.936576828125,11.8609626671875C36.138236828125,12.4232621671875,35.002818828125,13.0909943671875,34.967334828125004,13.1085660671875C34.559293828125,13.3194279671875,34.115770828125,13.5302917671875,33.636768828125,13.7235822671875C30.603070828125,14.9536137671875,27.569377828125,13.1612822671875,27.533893828125002,13.1437094671875C27.498409828125,13.1261365671875,26.717811628125,12.6868405671875,24.180863428125,11.5622396671875C22.229363928125,10.6836453671875,19.532746328125,10.0862009871875,18.379587528125,9.8577665671875L17.261912569125,9.6644767663875C17.173208035925,9.6469051481875,17.137726765125,9.7874800971875,17.226431295125,9.8226239971875L18.042512718125,10.1213462071875C23.045449228125,12.054254267187499,25.369505928125,15.3050532671875,24.766316428125002,20.0846048671875C24.587621228125002,21.6382588671875,24.168771228125,23.1554568671875,23.524453128125,24.5830098671875C23.506710528124998,24.6181528671875,23.169634828124998,25.3210268671875,23.009967828125,25.6021788671875C22.539619928125,26.4354118671875,22.018246128125,27.2393628671875,21.448767628125,28.0095248671875L22.406776928124998,27.2715068671875C22.885782228125,26.9200708671875,24.056680728125002,26.1820508671875,26.380740128124998,25.514318867187498C27.299194828125,25.287585867187502,28.238201828125,25.1521968671875,29.183804828124998,25.1101648671875C33.689992828125,24.7938708671875,37.930070828125,27.7986638671875,37.965552828125,27.8338068671875L38.036513828124995,27.8689518671875C38.085500828125,27.9174708671875,38.164926828125004,27.9174708671875,38.213914828125,27.8689478671875C38.262906828125,27.8204248671875,38.262910828125,27.7417548671875,38.213920828125,27.6932318671875Z" fill="#000000" fill-opacity="1" style="mix-blend-mode:passthrough"/></g></g></svg>