<svg width="787" height="174" viewBox="0 0 787 174" fill="none" xmlns="http://www.w3.org/2000/svg">
<circle cx="28" cy="132" r="28" fill="white"/>
<circle cx="107" cy="43.9999" r="28" fill="white"/>
<path fill-rule="evenodd" clip-rule="evenodd" d="M89 173.5H49L74.5 135.5C74.5 135.5 77.6811 135.71 79.5 135C81.3189 134.29 83.5 132 83.5 132C83.5 132 87.6248 127.533 89 124C90.3752 120.467 90 112 90 112C90 112 87.732 104.016 84.5 100C81.268 95.9839 78 92.9999 72.5 91.5C67 90 62.5 89.5 55.5 89.5C48.5 89.5 38 89 38 89L32 86.5001L33.5 83H50H66.5C66.5 83 94.2156 83.1985 100 84.5C105.784 85.8015 108.997 86.18 114 89C119.003 91.8201 125.233 97.4738 129 105C132.406 111.804 132.891 126.333 132.981 129.055C132.991 129.344 132.996 129.5 133 129.5C133 129.5 129.975 143.197 125.5 150.5C121.025 157.803 110.5 166.5 110.5 166.5C110.5 166.5 103.826 170.617 99.5 172C95.3413 173.33 93.3662 173.5 89 173.5Z" fill="white"/>
<path fill-rule="evenodd" clip-rule="evenodd" d="M89 173.5H49L74.5 135.5C74.5 135.5 77.6811 135.71 79.5 135C81.3189 134.29 83.5 132 83.5 132C83.5 132 87.6248 127.533 89 124C90.3752 120.467 90 112 90 112C90 112 87.732 104.016 84.5 100C81.268 95.9839 78 92.9999 72.5 91.5C67 90 62.5 89.5 55.5 89.5C48.5 89.5 38 89 38 89L32 86.5001L33.5 83H50H66.5C66.5 83 94.2156 83.1985 100 84.5C105.784 85.8015 108.997 86.18 114 89C119.003 91.8201 125.233 97.4738 129 105C132.406 111.804 132.891 126.333 132.981 129.055C132.991 129.344 132.996 129.5 133 129.5C133 129.5 129.975 143.197 125.5 150.5C121.025 157.803 110.5 166.5 110.5 166.5C110.5 166.5 103.826 170.617 99.5 172C95.3413 173.33 93.3662 173.5 89 173.5Z" fill="white"/>
<path fill-rule="evenodd" clip-rule="evenodd" d="M89 173.5H49L74.5 135.5C74.5 135.5 77.6811 135.71 79.5 135C81.3189 134.29 83.5 132 83.5 132C83.5 132 87.6248 127.533 89 124C90.3752 120.467 90 112 90 112C90 112 87.732 104.016 84.5 100C81.268 95.9839 78 92.9999 72.5 91.5C67 90 62.5 89.5 55.5 89.5C48.5 89.5 38 89 38 89L32 86.5001L33.5 83H50H66.5C66.5 83 94.2156 83.1985 100 84.5C105.784 85.8015 108.997 86.18 114 89C119.003 91.8201 125.233 97.4738 129 105C132.406 111.804 132.891 126.333 132.981 129.055C132.991 129.344 132.996 129.5 133 129.5C133 129.5 129.975 143.197 125.5 150.5C121.025 157.803 110.5 166.5 110.5 166.5C110.5 166.5 103.826 170.617 99.5 172C95.3413 173.33 93.3662 173.5 89 173.5Z" fill="white"/>
<path fill-rule="evenodd" clip-rule="evenodd" d="M89 173.5H49L74.5 135.5C74.5 135.5 77.6811 135.71 79.5 135C81.3189 134.29 83.5 132 83.5 132C83.5 132 87.6248 127.533 89 124C90.3752 120.467 90 112 90 112C90 112 87.732 104.016 84.5 100C81.268 95.9839 78 92.9999 72.5 91.5C67 90 62.5 89.5 55.5 89.5C48.5 89.5 38 89 38 89L32 86.5001L33.5 83H50H66.5C66.5 83 94.2156 83.1985 100 84.5C105.784 85.8015 108.997 86.18 114 89C119.003 91.8201 125.233 97.4738 129 105C132.406 111.804 132.891 126.333 132.981 129.055C132.991 129.344 132.996 129.5 133 129.5C133 129.5 129.975 143.197 125.5 150.5C121.025 157.803 110.5 166.5 110.5 166.5C110.5 166.5 103.826 170.617 99.5 172C95.3413 173.33 93.3662 173.5 89 173.5Z" fill="white"/>
<path fill-rule="evenodd" clip-rule="evenodd" d="M46 2.41288e-05H86L60.5 38C60.5 38 57.3189 37.7898 55.5 38.5C53.6811 39.2103 51.5 41.5 51.5 41.5C51.5 41.5 47.3752 45.9669 46 49.5C44.6248 53.0331 45 61.5 45 61.5C45 61.5 47.268 69.484 50.5 73.5C53.732 77.5161 57 80.5001 62.5 82C68 83.5 72.5 84 79.5 84C86.5 84 97 84.5 97 84.5L103 86.9999L101.5 90.5H85H68.5C68.5 90.5 40.7844 90.3015 35 89C29.2156 87.6985 26.0027 87.32 21 84.5C15.9973 81.6799 9.76743 76.0262 6 68.5C2.59419 61.6963 2.10947 47.1672 2.01864 44.4446C2.00899 44.1555 2.00379 43.9995 2 44C2 44 5.0246 30.3026 9.5 23C13.9754 15.6974 24.5 7.00002 24.5 7.00002C24.5 7.00002 31.1741 2.88333 35.5 1.49995C39.6587 0.170023 41.6338 7.68045e-05 46 2.41288e-05Z" fill="white"/>
<path fill-rule="evenodd" clip-rule="evenodd" d="M46 2.41288e-05H86L60.5 38C60.5 38 57.3189 37.7898 55.5 38.5C53.6811 39.2103 51.5 41.5 51.5 41.5C51.5 41.5 47.3752 45.9669 46 49.5C44.6248 53.0331 45 61.5 45 61.5C45 61.5 47.268 69.484 50.5 73.5C53.732 77.5161 57 80.5001 62.5 82C68 83.5 72.5 84 79.5 84C86.5 84 97 84.5 97 84.5L103 86.9999L101.5 90.5H85H68.5C68.5 90.5 40.7844 90.3015 35 89C29.2156 87.6985 26.0027 87.32 21 84.5C15.9973 81.6799 9.76743 76.0262 6 68.5C2.59419 61.6963 2.10947 47.1672 2.01864 44.4446C2.00899 44.1555 2.00379 43.9995 2 44C2 44 5.0246 30.3026 9.5 23C13.9754 15.6974 24.5 7.00002 24.5 7.00002C24.5 7.00002 31.1741 2.88333 35.5 1.49995C39.6587 0.170023 41.6338 7.68045e-05 46 2.41288e-05Z" fill="white"/>
<path fill-rule="evenodd" clip-rule="evenodd" d="M46 2.41288e-05H86L60.5 38C60.5 38 57.3189 37.7898 55.5 38.5C53.6811 39.2103 51.5 41.5 51.5 41.5C51.5 41.5 47.3752 45.9669 46 49.5C44.6248 53.0331 45 61.5 45 61.5C45 61.5 47.268 69.484 50.5 73.5C53.732 77.5161 57 80.5001 62.5 82C68 83.5 72.5 84 79.5 84C86.5 84 97 84.5 97 84.5L103 86.9999L101.5 90.5H85H68.5C68.5 90.5 40.7844 90.3015 35 89C29.2156 87.6985 26.0027 87.32 21 84.5C15.9973 81.6799 9.76743 76.0262 6 68.5C2.59419 61.6963 2.10947 47.1672 2.01864 44.4446C2.00899 44.1555 2.00379 43.9995 2 44C2 44 5.0246 30.3026 9.5 23C13.9754 15.6974 24.5 7.00002 24.5 7.00002C24.5 7.00002 31.1741 2.88333 35.5 1.49995C39.6587 0.170023 41.6338 7.68045e-05 46 2.41288e-05Z" fill="white"/>
<path fill-rule="evenodd" clip-rule="evenodd" d="M46 2.41288e-05H86L60.5 38C60.5 38 57.3189 37.7898 55.5 38.5C53.6811 39.2103 51.5 41.5 51.5 41.5C51.5 41.5 47.3752 45.9669 46 49.5C44.6248 53.0331 45 61.5 45 61.5C45 61.5 47.268 69.484 50.5 73.5C53.732 77.5161 57 80.5001 62.5 82C68 83.5 72.5 84 79.5 84C86.5 84 97 84.5 97 84.5L103 86.9999L101.5 90.5H85H68.5C68.5 90.5 40.7844 90.3015 35 89C29.2156 87.6985 26.0027 87.32 21 84.5C15.9973 81.6799 9.76743 76.0262 6 68.5C2.59419 61.6963 2.10947 47.1672 2.01864 44.4446C2.00899 44.1555 2.00379 43.9995 2 44C2 44 5.0246 30.3026 9.5 23C13.9754 15.6974 24.5 7.00002 24.5 7.00002C24.5 7.00002 31.1741 2.88333 35.5 1.49995C39.6587 0.170023 41.6338 7.68045e-05 46 2.41288e-05Z" fill="white"/>
<path d="M215.014 66.9999C214.829 64.6799 213.959 62.8702 212.404 61.571C210.873 60.2717 208.541 59.6221 205.409 59.6221C203.414 59.6221 201.778 59.8657 200.502 60.3529C199.249 60.8169 198.321 61.455 197.718 62.267C197.115 63.079 196.802 64.007 196.778 65.0511C196.732 65.9095 196.883 66.6867 197.231 67.3828C197.602 68.0556 198.182 68.6704 198.971 69.2272C199.76 69.7608 200.769 70.248 201.999 70.6889C203.228 71.1297 204.69 71.5241 206.384 71.8721L212.23 73.1249C216.174 73.9602 219.55 75.0622 222.357 76.431C225.165 77.7999 227.461 79.4123 229.248 81.2684C231.034 83.1013 232.345 85.1661 233.18 87.463C234.039 89.7599 234.48 92.2656 234.503 94.9801C234.48 99.6666 233.308 103.634 230.988 106.882C228.668 110.13 225.35 112.601 221.035 114.295C216.743 115.988 211.58 116.835 205.548 116.835C199.354 116.835 193.948 115.919 189.331 114.086C184.737 112.253 181.164 109.434 178.612 105.629C176.083 101.801 174.807 96.9057 174.784 90.9431H193.159C193.275 93.124 193.82 94.9569 194.795 96.4417C195.769 97.9265 197.138 99.0518 198.901 99.8174C200.688 100.583 202.811 100.966 205.27 100.966C207.335 100.966 209.063 100.711 210.455 100.2C211.847 99.6898 212.903 98.9822 213.622 98.0774C214.341 97.1725 214.713 96.1401 214.736 94.9801C214.713 93.8896 214.353 92.9384 213.657 92.1264C212.984 91.2911 211.871 90.5487 210.316 89.8991C208.762 89.2263 206.662 88.5998 204.017 88.0198L196.918 86.4886C190.607 85.1197 185.63 82.8345 181.988 79.6328C178.369 76.4078 176.571 72.0113 176.594 66.4431C176.571 61.919 177.777 57.9632 180.213 54.5759C182.672 51.1654 186.071 48.5089 190.41 46.6065C194.772 44.704 199.771 43.7528 205.409 43.7528C211.163 43.7528 216.139 44.7156 220.339 46.6413C224.538 48.5669 227.775 51.2814 230.048 54.7847C232.345 58.2649 233.505 62.3366 233.528 66.9999H215.014ZM274.02 62.5454V76.4658H238.801V62.5454H274.02ZM245.622 49.7386H264.832V98.8082C264.832 99.5506 264.96 100.177 265.215 100.687C265.47 101.175 265.864 101.546 266.398 101.801C266.932 102.033 267.616 102.149 268.451 102.149C269.031 102.149 269.704 102.079 270.47 101.94C271.259 101.801 271.839 101.685 272.21 101.592L274.994 115.095C274.136 115.35 272.906 115.664 271.305 116.035C269.727 116.406 267.848 116.65 265.667 116.766C261.259 116.998 257.559 116.545 254.566 115.408C251.573 114.248 249.322 112.427 247.814 109.945C246.306 107.462 245.575 104.353 245.622 100.618V49.7386ZM306.898 116.974C301.191 116.974 296.272 115.884 292.142 113.703C288.036 111.499 284.869 108.344 282.642 104.237C280.437 100.107 279.335 95.1657 279.335 89.4119C279.335 83.8901 280.449 79.0643 282.676 74.9346C284.904 70.8049 288.047 67.5916 292.107 65.2947C296.168 62.9978 300.959 61.8494 306.48 61.8494C310.517 61.8494 314.171 62.4758 317.443 63.7286C320.714 64.9815 323.51 66.8027 325.83 69.1924C328.15 71.5589 329.936 74.4358 331.189 77.8231C332.442 81.2104 333.068 85.0269 333.068 89.2727V93.7272H285.321V83.1477H315.389C315.366 81.6164 314.972 80.2708 314.206 79.1107C313.464 77.9275 312.454 77.0111 311.178 76.3614C309.926 75.6886 308.499 75.3522 306.898 75.3522C305.343 75.3522 303.917 75.6886 302.617 76.3614C301.318 77.0111 300.274 77.9159 299.485 79.0759C298.72 80.236 298.314 81.5932 298.267 83.1477V94.5624C298.267 96.2793 298.627 97.8105 299.346 99.1562C300.065 100.502 301.098 101.557 302.443 102.323C303.789 103.089 305.413 103.472 307.316 103.472C308.638 103.472 309.844 103.286 310.935 102.915C312.048 102.543 313 102.01 313.789 101.314C314.577 100.595 315.157 99.7362 315.529 98.7386H333.068C332.465 102.451 331.038 105.676 328.788 108.413C326.537 111.128 323.556 113.239 319.844 114.747C316.155 116.232 311.84 116.974 306.898 116.974ZM360.118 44.7272V116H340.907V44.7272H360.118ZM389.116 44.7272V116H369.905V44.7272H389.116ZM417.139 116H396.259L419.784 44.7272H446.233L469.759 116H448.878L433.287 64.3551H432.73L417.139 116ZM413.241 87.8806H452.497V102.358H413.241V87.8806ZM495.972 44.7272V116H476.623V44.7272H495.972ZM505.143 116V44.7272H524.492V100.409H553.307V116H505.143ZM587.16 116.974C581.36 116.974 576.395 115.826 572.265 113.529C568.136 111.209 564.969 107.984 562.765 103.854C560.56 99.7014 559.458 94.8872 559.458 89.4119C559.458 83.9365 560.56 79.1339 562.765 75.0042C564.969 70.8513 568.136 67.6264 572.265 65.3295C576.395 63.0094 581.36 61.8494 587.16 61.8494C592.96 61.8494 597.925 63.0094 602.055 65.3295C606.185 67.6264 609.352 70.8513 611.556 75.0042C613.76 79.1339 614.862 83.9365 614.862 89.4119C614.862 94.8872 613.76 99.7014 611.556 103.854C609.352 107.984 606.185 111.209 602.055 113.529C597.925 115.826 592.96 116.974 587.16 116.974ZM587.299 102.776C588.923 102.776 590.327 102.23 591.51 101.14C592.694 100.049 593.61 98.495 594.26 96.4765C594.909 94.458 595.234 92.0568 595.234 89.2727C595.234 86.4654 594.909 84.0641 594.26 82.0688C593.61 80.0504 592.694 78.4959 591.51 77.4055C590.327 76.315 588.923 75.7698 587.299 75.7698C585.583 75.7698 584.109 76.315 582.88 77.4055C581.65 78.4959 580.71 80.0504 580.061 82.0688C579.411 84.0641 579.086 86.4654 579.086 89.2727C579.086 92.0568 579.411 94.458 580.061 96.4765C580.71 98.495 581.65 100.049 582.88 101.14C584.109 102.23 585.583 102.776 587.299 102.776ZM648.41 116.974C642.61 116.974 637.645 115.826 633.515 113.529C629.386 111.209 626.219 107.984 624.015 103.854C621.81 99.7014 620.708 94.8872 620.708 89.4119C620.708 83.9365 621.81 79.1339 624.015 75.0042C626.219 70.8513 629.386 67.6264 633.515 65.3295C637.645 63.0094 642.61 61.8494 648.41 61.8494C654.21 61.8494 659.175 63.0094 663.305 65.3295C667.435 67.6264 670.602 70.8513 672.806 75.0042C675.01 79.1339 676.112 83.9365 676.112 89.4119C676.112 94.8872 675.01 99.7014 672.806 103.854C670.602 107.984 667.435 111.209 663.305 113.529C659.175 115.826 654.21 116.974 648.41 116.974ZM648.549 102.776C650.173 102.776 651.577 102.23 652.76 101.14C653.944 100.049 654.86 98.495 655.51 96.4765C656.159 94.458 656.484 92.0568 656.484 89.2727C656.484 86.4654 656.159 84.0641 655.51 82.0688C654.86 80.0504 653.944 78.4959 652.76 77.4055C651.577 76.315 650.173 75.7698 648.549 75.7698C646.833 75.7698 645.359 76.315 644.13 77.4055C642.9 78.4959 641.96 80.0504 641.311 82.0688C640.661 84.0641 640.336 86.4654 640.336 89.2727C640.336 92.0568 640.661 94.458 641.311 96.4765C641.96 98.495 642.9 100.049 644.13 101.14C645.359 102.23 646.833 102.776 648.549 102.776ZM683.907 116V62.5454H702.143V72.7073H702.7C703.814 69.3664 705.716 66.7215 708.407 64.7727C711.099 62.8238 714.3 61.8494 718.012 61.8494C721.771 61.8494 725.007 62.847 727.722 64.8423C730.436 66.8143 732.072 69.436 732.629 72.7073H733.186C734.091 69.436 736.016 66.8143 738.963 64.8423C741.909 62.847 745.366 61.8494 749.333 61.8494C754.461 61.8494 758.614 63.4966 761.792 66.7911C764.994 70.0856 766.595 74.4706 766.595 79.946V116H747.385V84.8181C747.385 82.4748 746.793 80.642 745.61 79.3195C744.426 77.9739 742.837 77.3011 740.842 77.3011C738.87 77.3011 737.304 77.9739 736.144 79.3195C735.007 80.642 734.439 82.4748 734.439 84.8181V116H716.064V84.8181C716.064 82.4748 715.472 80.642 714.289 79.3195C713.105 77.9739 711.516 77.3011 709.521 77.3011C708.199 77.3011 707.062 77.6027 706.11 78.2059C705.159 78.8091 704.417 79.6792 703.883 80.816C703.373 81.9296 703.118 83.2637 703.118 84.8181V116H683.907Z" fill="white"/>
</svg>
